<?xml version="1.0" encoding="UTF-8"?>
<!DOCTYPE svg PUBLIC "-//W3C//DTD SVG 1.1//EN" "http://www.w3.org/Graphics/SVG/1.1/DTD/svg11.dtd">
<!-- Creator: CorelDRAW 2020 (64 Bit) -->
<svg xmlns="http://www.w3.org/2000/svg" 
xml:space="preserve" 
width="100%" height="100%" 
version="1.1" style="shape-rendering:geometricPrecision; text-rendering:geometricPrecision; image-rendering:optimizeQuality; fill-rule:evenodd; clip-rule:evenodd"
viewBox="0 0 27093.32 20320"
 xmlns:xlink="http://www.w3.org/1999/xlink"
 xmlns:xodm="http://www.corel.com/coreldraw/odm/2003">
 <defs>
  <style type="text/css">
   <![CDATA[
    .fil0 {fill:#1A1A1A;fill-rule:nonzero}
   ]]>
  </style>
 </defs>
 <g id="Camada_x0020_1">
  <metadata id="CorelCorpID_0Corel-Layer"/>
  <g id="_2830915321968">
   <g>
    <path class="fil0" d="M23211.2 10160.01l-666.54 0 0 0 -11.72 -463.38 -34.76 -457.08 -57.23 -450.32 -79.12 -443.04 -100.44 -435.22 -121.23 -426.86 -141.42 -417.96 -161.07 -408.5 -180.16 -398.49 -198.69 -387.93 -216.64 -376.79 -234.06 -365.09 -250.89 -352.81 -267.16 -339.97 -282.87 -326.55 -298 -312.56 -312.56 -298 -326.55 -282.87 -339.97 -267.16 -352.81 -250.89 -365.09 -234.06 -376.79 -216.65 -387.92 -198.68 -398.49 -180.16 -408.51 -161.07 -417.96 -141.42 -426.85 -121.23 -435.23 -100.44 -443.03 -79.12 -450.32 -57.23 -457.08 -34.76 -463.38 -11.72 0 -666.54 497 12.56 490.68 37.32 483.66 61.45 475.99 85 467.69 107.94 458.75 130.27 449.18 151.98 438.99 173.09 428.19 193.58 416.76 213.46 404.75 232.71 392.11 251.38 378.87 269.43 365.05 286.86 350.61 303.71 335.58 319.94 319.94 335.58 303.71 350.61 286.86 365.05 269.43 378.87 251.38 392.11 232.72 404.75 213.45 416.77 193.58 428.19 173.09 438.98 151.98 449.18 130.27 458.76 107.94 467.68 85 476 61.45 483.66 37.32 490.68 12.56 497 0 0zm-9664.54 9664.54l0 -666.54 0 0 463.38 -11.72 457.08 -34.76 450.32 -57.23 443.03 -79.12 435.23 -100.44 426.85 -121.23 417.96 -141.42 408.51 -161.07 398.49 -180.16 387.92 -198.68 376.79 -216.65 365.09 -234.06 352.81 -250.89 339.97 -267.16 326.55 -282.87 312.56 -298 298 -312.56 282.87 -326.55 267.16 -339.97 250.89 -352.81 234.06 -365.09 216.65 -376.79 198.68 -387.92 180.16 -398.49 161.07 -408.51 141.42 -417.96 121.23 -426.85 100.44 -435.23 79.12 -443.03 57.23 -450.32 34.76 -457.08 11.72 -463.38 666.54 0 -12.56 497 -37.32 490.68 -61.45 483.66 -85 475.99 -107.94 467.69 -130.27 458.75 -151.98 449.18 -173.09 438.99 -193.58 428.19 -213.46 416.76 -232.71 404.75 -251.38 392.11 -269.43 378.87 -286.86 365.05 -303.71 350.61 -319.94 335.58 -335.58 319.94 -350.61 303.71 -365.05 286.86 -378.87 269.43 -392.11 251.38 -404.75 232.71 -416.76 213.46 -428.19 193.58 -438.99 173.09 -449.18 151.98 -458.75 130.27 -467.69 107.94 -475.99 85 -483.66 61.45 -490.68 37.32 -497 12.56 0 0zm-9664.55 -9664.54l666.54 0 0 0 11.72 463.38 34.76 457.08 57.23 450.32 79.12 443.03 100.44 435.23 121.23 426.85 141.42 417.96 161.07 408.51 180.16 398.49 198.68 387.92 216.65 376.79 234.06 365.09 250.89 352.81 267.16 339.97 282.87 326.55 298 312.56 312.56 298 326.55 282.87 339.97 267.16 352.81 250.89 365.09 234.06 376.79 216.64 387.93 198.69 398.49 180.16 408.5 161.07 417.96 141.42 426.86 121.23 435.22 100.44 443.04 79.12 450.32 57.23 457.08 34.76 463.38 11.72 0 666.54 -497 -12.56 -490.68 -37.32 -483.66 -61.45 -476 -85 -467.68 -107.94 -458.76 -130.27 -449.18 -151.98 -438.98 -173.09 -428.19 -193.58 -416.77 -213.45 -404.75 -232.72 -392.11 -251.38 -378.87 -269.43 -365.05 -286.86 -350.61 -303.71 -335.58 -319.94 -319.94 -335.58 -303.71 -350.61 -286.86 -365.05 -269.43 -378.87 -251.38 -392.11 -232.71 -404.75 -213.46 -416.76 -193.58 -428.19 -173.09 -438.99 -151.98 -449.18 -130.27 -458.75 -107.94 -467.69 -85 -475.99 -61.45 -483.66 -37.32 -490.68 -12.56 -497 0 0zm9664.55 -9664.55l0 666.54 0 0 -463.38 11.72 -457.08 34.76 -450.32 57.23 -443.04 79.12 -435.22 100.44 -426.86 121.23 -417.96 141.42 -408.5 161.07 -398.49 180.16 -387.93 198.69 -376.79 216.64 -365.09 234.06 -352.81 250.89 -339.97 267.16 -326.55 282.87 -312.56 298 -298 312.56 -282.87 326.55 -267.16 339.97 -250.89 352.81 -234.06 365.09 -216.64 376.79 -198.69 387.93 -180.16 398.49 -161.07 408.5 -141.42 417.96 -121.23 426.86 -100.44 435.22 -79.12 443.04 -57.23 450.32 -34.76 457.08 -11.72 463.38 -666.54 0 12.56 -497 37.32 -490.68 61.45 -483.66 85 -476 107.94 -467.68 130.27 -458.76 151.98 -449.18 173.09 -438.98 193.58 -428.19 213.45 -416.77 232.72 -404.75 251.38 -392.11 269.43 -378.87 286.86 -365.05 303.71 -350.61 319.94 -335.58 335.58 -319.94 350.61 -303.71 365.05 -286.86 378.87 -269.43 392.11 -251.38 404.75 -232.72 416.77 -213.45 428.19 -193.58 438.98 -173.09 449.18 -151.98 458.76 -130.27 467.68 -107.94 476 -85 483.66 -61.45 490.68 -37.32 497 -12.56 0 0z"/>
   </g>
   <g>
    <path class="fil0" d="M17797.71 10160.01l-667.06 0 0 0 -5.02 -473.11 -14.91 -466.77 -24.52 -459.84 -33.91 -452.31 -43.04 -444.18 -51.91 -435.43 -60.52 -426.07 -68.89 -416.1 -76.96 -405.51 -84.78 -394.32 -92.33 -382.48 -99.59 -370.02 -106.56 -356.93 -113.24 -343.22 -119.59 -328.85 -125.63 -313.86 -131.3 -298.21 -136.63 -281.91 -141.55 -264.96 -146.03 -247.38 -150.06 -229.15 -153.54 -210.31 -156.47 -190.92 -158.77 -171 -160.39 -150.67 -161.33 -130.06 -161.62 -109.37 -161.36 -88.75 -160.85 -68.47 -160.4 -48.59 -160.52 -29.11 -161.77 -9.76 0 -667.32 241.41 14.52 237.38 42.97 231.72 70.09 224.99 95.65 217.7 119.63 210.18 142.13 202.71 163.34 195.41 183.49 188.29 202.74 181.37 221.22 174.56 239.05 167.84 256.29 161.15 272.94 154.43 289.06 147.67 304.67 140.8 319.73 133.81 334.28 126.67 348.31 119.36 361.8 111.88 374.75 104.21 387.18 96.33 399.06 88.24 410.38 79.94 421.17 71.41 431.38 62.66 441.07 53.67 450.19 44.44 458.72 34.99 466.73 25.3 474.14 15.35 480.99 5.18 487.27 0 0zm-4251.05 9664.93l0 -667.32 0 0 161.77 -9.76 160.52 -29.11 160.4 -48.59 160.85 -68.47 161.36 -88.75 161.62 -109.37 161.33 -130.06 160.39 -150.67 158.77 -171 156.47 -190.92 153.54 -210.31 150.06 -229.15 146.03 -247.38 141.55 -264.96 136.63 -281.91 131.3 -298.21 125.63 -313.86 119.59 -328.85 113.24 -343.22 106.56 -356.93 99.59 -370.02 92.33 -382.49 84.78 -394.3 76.96 -405.51 68.89 -416.11 60.52 -426.07 51.91 -435.42 43.04 -444.19 33.91 -452.3 24.52 -459.84 14.91 -466.77 5.02 -473.11 667.06 0 -5.18 487.27 -15.35 480.99 -25.3 474.14 -34.99 466.72 -44.44 458.73 -53.67 450.18 -62.66 441.07 -71.41 431.39 -79.94 421.17 -88.24 410.38 -96.33 399.05 -104.21 387.18 -111.88 374.75 -119.36 361.8 -126.67 348.31 -133.81 334.28 -140.8 319.73 -147.67 304.67 -154.43 289.06 -161.15 272.94 -167.84 256.29 -174.56 239.05 -181.37 221.22 -188.29 202.74 -195.41 183.49 -202.71 163.34 -210.18 142.13 -217.7 119.63 -224.99 95.65 -231.72 70.09 -237.38 42.97 -241.41 14.52 0 0zm-4251.05 -9664.93l667.06 0 0 0 5.02 473.11 14.91 466.77 24.52 459.84 33.91 452.3 43.04 444.19 51.91 435.42 60.52 426.07 68.89 416.11 76.96 405.51 84.78 394.3 92.33 382.49 99.59 370.02 106.56 356.93 113.24 343.22 119.59 328.86 125.62 313.85 131.31 298.21 136.62 281.92 141.55 264.95 146.04 247.38 150.05 229.15 153.55 210.31 156.47 190.92 158.76 171 160.39 150.67 161.34 130.06 161.62 109.37 161.36 88.75 160.85 68.47 160.41 48.59 160.5 29.11 161.78 9.76 0 667.32 -241.42 -14.52 -237.38 -42.97 -231.71 -70.09 -224.99 -95.65 -217.7 -119.63 -210.18 -142.13 -202.72 -163.34 -195.41 -183.49 -188.3 -202.74 -181.35 -221.22 -174.57 -239.05 -167.83 -256.29 -161.16 -272.94 -154.43 -289.07 -147.66 -304.66 -140.81 -319.73 -133.8 -334.29 -126.67 -348.3 -119.36 -361.8 -111.88 -374.75 -104.21 -387.18 -96.33 -399.05 -88.24 -410.38 -79.94 -421.17 -71.41 -431.39 -62.66 -441.07 -53.67 -450.18 -44.44 -458.73 -34.99 -466.72 -25.3 -474.14 -15.35 -480.99 -5.18 -487.27 0 0zm4251.05 -9664.94l0 667.32 0 0 -161.78 9.76 -160.5 29.11 -160.41 48.59 -160.85 68.47 -161.36 88.75 -161.62 109.37 -161.34 130.06 -160.39 150.67 -158.76 171 -156.47 190.92 -153.55 210.31 -150.05 229.15 -146.04 247.38 -141.55 264.95 -136.62 281.92 -131.31 298.21 -125.62 313.85 -119.59 328.86 -113.24 343.22 -106.56 356.93 -99.59 370.02 -92.33 382.48 -84.78 394.32 -76.96 405.51 -68.89 416.1 -60.52 426.07 -51.91 435.43 -43.04 444.18 -33.91 452.31 -24.52 459.84 -14.91 466.77 -5.02 473.11 -667.06 0 5.18 -487.27 15.35 -480.99 25.3 -474.14 34.99 -466.73 44.44 -458.72 53.67 -450.19 62.66 -441.07 71.41 -431.38 79.94 -421.17 88.24 -410.38 96.33 -399.06 104.21 -387.18 111.88 -374.75 119.36 -361.8 126.67 -348.3 133.8 -334.29 140.81 -319.73 147.66 -304.66 154.43 -289.07 161.16 -272.94 167.83 -256.29 174.57 -239.05 181.35 -221.22 188.3 -202.74 195.41 -183.49 202.72 -163.34 210.18 -142.13 217.7 -119.63 224.99 -95.65 231.71 -70.09 237.38 -42.97 241.42 -14.52 0 0z"/>
   </g>
   <g>
    <path class="fil0" d="M13594.11 11752.18l-21.6 -666.2 0 0 474.01 -18.26 467.52 -23.73 460.46 -29.05 452.79 -34.19 444.54 -39.2 435.69 -44.01 426.24 -48.67 416.19 -53.17 405.52 -57.5 394.27 -61.66 382.39 -65.63 369.9 -69.45 356.79 -73.06 343.03 -76.51 328.66 -79.74 313.62 -82.77 297.92 -85.61 281.54 -88.18 264.45 -90.49 246.64 -92.52 228.05 -94.18 208.67 -95.44 188.43 -96.14 167.31 -96.16 145.29 -95.29 122.39 -93.14 98.79 -89.3 74.97 -83.28 51.95 -74.68 31.39 -63.94 15.14 -53.15 3.48 -46.72 663.98 -21.36 -13.28 184.34 -49.32 176.41 -79.57 163.84 -104.39 150.98 -125.55 139.94 -144.79 131.16 -163.07 124.24 -180.89 118.71 -198.43 114.12 -215.73 110.1 -232.75 106.46 -249.45 103.04 -265.8 99.72 -281.77 96.43 -297.28 93.12 -312.38 89.75 -326.96 86.31 -341.08 82.76 -354.67 79.09 -367.75 75.32 -380.3 71.39 -392.33 67.35 -403.79 63.14 -414.72 58.8 -425.09 54.31 -434.92 49.67 -444.17 44.87 -452.88 39.92 -461.03 34.83 -468.6 29.55 -475.62 24.15 -482.05 18.56 0 0zm-9705.99 -2258.58l663.98 -21.36 6.47 46.38 18.52 52.04 35.43 61.75 56.61 71.13 80.15 78.22 104.3 82.72 128.11 85 151.09 85.66 173.15 85.13 194.21 83.73 214.37 81.72 233.62 79.22 252.07 76.35 269.71 73.18 286.61 69.75 302.81 66.12 318.29 62.3 333.09 58.29 347.24 54.13 360.73 49.8 373.59 45.33 385.81 40.73 397.41 35.99 408.39 31.1 418.73 26.11 428.47 20.97 437.62 15.7 446.13 10.31 454.05 4.8 461.37 -0.84 468.06 -6.6 474.2 -12.48 21.6 666.2 -482.24 12.7 -476.18 6.72 -469.53 0.84 -462.29 -4.88 -454.51 -10.51 -446.14 -16 -437.21 -21.39 -427.69 -26.67 -417.63 -31.82 -407.01 -36.85 -395.83 -41.79 -384.11 -46.61 -371.83 -51.34 -359.02 -55.95 -345.69 -60.51 -331.83 -64.94 -317.49 -69.34 -302.67 -73.67 -287.37 -77.98 -271.67 -82.29 -255.56 -86.68 -239.11 -91.16 -222.35 -95.91 -205.37 -101.01 -188.17 -106.76 -170.73 -113.44 -152.94 -121.52 -134.31 -131.54 -113.89 -143.93 -89.95 -158.37 -60.56 -172.88 -25.11 -183.1z"/>
   </g>
   <g>
    <path class="fil0" d="M13382.36 13491.85l0 0 377.04 18.67 372.04 24.28 366.58 29.73 360.71 35.02 354.39 40.17 347.65 45.16 340.47 49.98 332.88 54.68 324.86 59.22 316.42 63.62 307.56 67.88 298.31 71.99 288.64 76 278.56 79.88 268.12 83.64 257.29 87.32 246.07 90.91 234.5 94.44 222.61 97.95 210.37 101.47 197.82 105.06 184.98 108.79 171.82 112.75 158.33 117.06 144.46 121.9 130.08 127.41 114.9 133.81 98.51 141.13 80.33 149.28 59.58 157.56 35.9 164.8 9.51 169.18 -669.2 -16.8 -3.53 -61.88 -14.24 -64.76 -26.72 -70.22 -41.27 -76.38 -57.45 -82.09 -74.54 -86.65 -91.96 -89.97 -109.24 -92.1 -126.15 -93.22 -142.52 -93.49 -158.36 -93.11 -173.58 -92.16 -188.19 -90.77 -202.23 -88.97 -215.7 -86.86 -228.61 -84.45 -240.95 -81.78 -252.8 -78.86 -264.1 -75.72 -274.9 -72.38 -285.19 -68.83 -295 -65.1 -304.3 -61.18 -313.12 -57.08 -321.46 -52.8 -329.31 -48.36 -336.71 -43.72 -343.61 -38.95 -350.05 -34 -356.02 -28.87 -361.52 -23.6 -366.58 -18.15 0 0 27.82 -667.48zm-7631.1 2261.49l18 -168.43 44.37 -162.62 68.01 -153.77 88.55 -143.78 106.44 -134 122.43 -125.05 137.19 -117.19 151.16 -110.28 164.66 -104.14 177.77 -98.58 190.61 -93.44 203.16 -88.58 215.43 -83.91 227.4 -79.33 239.05 -74.82 250.37 -70.3 261.34 -65.76 271.94 -61.19 282.15 -56.54 291.98 -51.83 301.41 -47.02 310.43 -42.14 319.03 -37.14 327.22 -32.06 335 -26.84 342.32 -21.54 349.23 -16.11 355.7 -10.57 361.73 -4.91 367.33 0.85 372.5 6.76 377.19 12.77 -27.82 667.48 -366.71 -12.41 -361.94 -6.56 -356.69 -0.83 -351.01 4.77 -344.8 10.25 -338.15 15.59 -330.98 20.82 -323.36 25.92 -315.24 30.88 -306.63 35.7 -297.53 40.38 -287.91 44.92 -277.8 49.31 -267.17 53.54 -256.02 57.59 -244.32 61.48 -232.07 65.16 -219.29 68.62 -205.9 71.83 -191.93 74.73 -177.32 77.3 -162.09 79.44 -146.25 81.06 -129.74 82 -112.7 82.14 -95.25 81.27 -77.65 79.17 -60.36 75.76 -44.07 71.28 -29.51 66.35 -17.13 62.3 -6.56 61.05 -669.2 -16.8z"/>
   </g>
   <g>
    <path class="fil0" d="M13429.52 7686.97l-25.54 -666.06 0 0 399.71 -18.2 394.24 -23.66 388.24 -28.95 381.77 -34.09 374.77 -39.06 367.26 -43.86 359.25 -48.5 350.72 -52.97 341.67 -57.27 332.11 -61.4 322.03 -65.35 311.4 -69.1 300.25 -72.7 288.56 -76.07 276.31 -79.26 263.5 -82.23 250.13 -84.97 236.16 -87.44 221.6 -89.65 206.39 -91.53 190.55 -93.03 174.04 -94.1 156.84 -94.6 138.95 -94.42 120.43 -93.36 101.32 -91.15 81.91 -87.55 62.69 -82.35 44.38 -75.49 28.04 -67.67 14.48 -60.41 3.51 -56.39 655.64 -17.58 -10.67 174.67 -40.04 169.15 -65.82 160.11 -87.86 150.17 -106.93 140.87 -124.11 132.91 -140.14 126.23 -155.49 120.64 -170.43 115.86 -185.02 111.64 -199.34 107.8 -213.35 104.19 -227.07 100.71 -240.44 97.27 -253.44 93.86 -266.09 90.39 -278.36 86.87 -290.19 83.24 -301.62 79.53 -312.61 75.68 -323.18 71.72 -333.27 67.63 -342.95 63.4 -352.15 59.03 -360.88 54.51 -369.19 49.84 -376.98 45.02 -384.33 40.06 -391.21 34.93 -397.62 29.65 -403.54 24.22 -408.99 18.62 0 0zm-8260.63 -2260.39l655.64 -17.58 6.52 55.64 17.46 58.28 31.11 64.24 47.65 70.82 66.23 76.44 85.75 80.38 105.39 82.68 124.62 83.53 143.31 83.28 161.24 82.18 178.43 80.41 194.93 78.13 210.69 75.45 225.8 72.43 240.25 69.13 254.07 65.59 267.3 61.85 279.93 57.91 292 53.8 303.49 49.54 314.44 45.1 324.85 40.55 334.7 35.83 344.04 30.99 352.83 26 361.11 20.89 368.85 15.64 376.09 10.28 382.81 4.78 388.99 -0.83 394.69 -6.59 399.88 -12.44 25.54 666.06 -409.14 12.74 -404.03 6.73 -398.41 0.85 -392.31 -4.9 -385.73 -10.54 -378.67 -16.06 -371.15 -21.47 -363.15 -26.76 -354.66 -31.95 -345.72 -37.01 -336.33 -41.97 -326.46 -46.84 -316.17 -51.6 -305.4 -56.28 -294.23 -60.87 -282.62 -65.39 -270.61 -69.87 -258.21 -74.31 -245.42 -78.73 -232.31 -83.19 -218.87 -87.75 -205.15 -92.47 -191.12 -97.46 -176.87 -102.86 -162.34 -108.89 -147.39 -115.78 -131.83 -123.84 -115.19 -133.32 -96.57 -144.24 -74.95 -155.88 -49.42 -166.64 -20.2 -173.84z"/>
   </g>
  </g>
 </g>
</svg>
